# xmcd
#
# Track frame offsets:
#	150
#	20853
#	41431
#	56391
#	73074
#	93627
#	111743
#	126265
#	143730
#	160425
#	183133
#	196195
#	216290
#	229779
#	256072
#
# Disc length: 3700 seconds
#
# Revision: 1
# Processed by: cddbd v1.5.2PL0 Copyright (c) Steve Scherf et al.
# Submitted via: audiograbber 1.83.01
#
DISCID=dd0e720f
DTITLE=Joe Filisko and Eric Noden - I.C. Special
DYEAR=2009
DGENRE=
TTITLE0=I C Special
TTITLE1=Gridlock Blues
TTITLE2=Now Shes Gone
TTITLE3=Me and Sonny
TTITLE4=Angry Woman
TTITLE5=Good Friend
TTITLE6=Too Much Whiskey
TTITLE7=Girl Of Mine
TTITLE8=Made Me Lonesome
TTITLE9=Busy Man
TTITLE10=Leadfoot Stomp
TTITLE11=Jaybird Moan
TTITLE12=Head On Outta Here
TTITLE13=Stranded
TTITLE14=No One Gets...
EXTD=
EXTT0=
EXTT1=
EXTT2=
EXTT3=
EXTT4=
EXTT5=
EXTT6=
EXTT7=
EXTT8=
EXTT9=
EXTT10=
EXTT11=
EXTT12=
EXTT13=
EXTT14=
PLAYORDER=
